<?xml version="1.0" encoding="UTF-8"?>
<svg version="1.1" xmlns="http://www.w3.org/2000/svg" width="1024" height="1024">
<path d="M0 0 C337.92 0 675.84 0 1024 0 C1024 337.92 1024 675.84 1024 1024 C686.08 1024 348.16 1024 0 1024 C0 686.08 0 348.16 0 0 Z " fill="#00214D" transform="translate(0,0)"/>
<path d="M0 0 C0.76316528 0.00359528 1.52633057 0.00719055 2.31262207 0.01089478 C3.51253029 0.01067574 3.51253029 0.01067574 4.73667908 0.01045227 C7.39344958 0.01115161 10.05015086 0.01894498 12.70690918 0.02676392 C14.54393984 0.02862802 16.38097099 0.03005196 18.21800232 0.03105164 C23.06284955 0.03487742 27.90766701 0.04470821 32.75250244 0.05575562 C37.69237871 0.06596845 42.63225978 0.07054898 47.57214355 0.07559204 C57.27202646 0.08633042 66.97188722 0.10340756 76.67175293 0.12442017 C88.96366238 31.39674164 101.18425496 62.6956425 113.31286621 94.03164673 C116.86595522 103.21053668 120.42555889 112.3869007 123.98461914 121.56347656 C125.95738115 126.650109 127.92980291 131.73687337 129.90222168 136.82363892 C130.29305939 137.83156998 130.68389709 138.83950104 131.08657837 139.87797546 C133.51228005 146.1337439 135.93758758 152.389665 138.36262512 158.64569092 C140.40304874 163.90948013 142.44363606 169.17320587 144.48425293 174.43692017 C144.88518158 175.47115112 145.28611023 176.50538208 145.69918823 177.57095337 C149.52863086 187.44885858 153.35848679 197.32658868 157.20300293 207.19863892 C157.47741714 207.90329285 157.75183136 208.60794678 158.03456116 209.33395386 C158.30614548 210.03131653 158.5777298 210.7286792 158.85754395 211.44717407 C165.37286108 228.1770284 171.85052528 244.92135809 178.31646347 261.67034912 C179.03345704 263.52748161 179.75062882 265.38454529 180.46780396 267.24160767 C182.70695942 273.04038695 184.94269848 278.84041812 187.17077637 284.64346313 C188.80592793 288.89728446 190.46638758 293.13976419 192.14929199 297.37490845 C192.53034088 298.34461075 192.91138977 299.31431305 193.3039856 300.31340027 C194.01251347 302.11570163 194.72941612 303.9147424 195.45626831 305.70973206 C195.7653714 306.50150345 196.07447449 307.29327484 196.39294434 308.10903931 C196.66571198 308.79244888 196.93847961 309.47585846 197.21951294 310.17997742 C197.76315529 312.51741207 197.46706801 313.87955196 196.67175293 316.12442017 C195.49182129 317.66079712 195.49182129 317.66079712 194.01159668 319.11270142 C193.46946533 319.65040161 192.92733398 320.18810181 192.36877441 320.74209595 C191.78813232 321.30138794 191.20749023 321.86067993 190.60925293 322.43692017 C190.01507568 323.01941528 189.42089844 323.6019104 188.80871582 324.20205688 C185.22142401 327.69606445 181.56850375 331.08652661 177.74987793 334.32754517 C175.59062899 336.19456493 173.49578605 338.12389923 171.40393066 340.06582642 C166.1914138 344.90349024 160.85204481 349.49238076 155.30847168 353.95254517 C152.74755265 356.06198366 150.30051838 358.25329665 147.85925293 360.49942017 C143.49480098 364.47210241 138.94684591 368.12375797 134.28820801 371.73916626 C128.79044786 376.00850551 123.38940515 380.39061102 118.00134277 384.79727173 C117.3640625 385.31773071 116.72678223 385.8381897 116.07019043 386.37442017 C115.50993164 386.83332642 114.94967285 387.29223267 114.37243652 387.76504517 C113.53059814 388.43793579 113.53059814 388.43793579 112.67175293 389.12442017 C112.1298872 389.64001653 111.58802147 390.15561289 111.02973557 390.68683338 C107.80822925 392.65088301 104.90266507 392.53083962 101.24334717 392.48518372 C100.49263939 392.48774699 99.74193161 392.49031026 98.9684751 392.49295121 C96.45170634 392.49789466 93.93553679 392.4813873 91.41882324 392.46499634 C89.61530064 392.46415019 87.811777 392.46462498 86.008255 392.46632385 C81.10979747 392.46718569 76.21155967 392.44952936 71.31315327 392.42860198 C66.19488446 392.40986665 61.07661079 392.40808722 55.95831299 392.40452576 C46.26504729 392.39519605 36.57188292 392.37056972 26.87866187 392.34047729 C15.84372683 392.3069621 4.80878698 392.29045452 -6.22618628 392.27539098 C-28.92692942 392.24402099 -51.62758257 392.19124247 -74.32824707 392.12442017 C-74.52588339 392.79260395 -74.72351971 393.46078773 -74.927145 394.14921951 C-75.19086214 395.03558468 -75.45457928 395.92194984 -75.72628784 396.83517456 C-75.98579916 397.70960835 -76.24531048 398.58404213 -76.51268578 399.48497391 C-77.77251367 403.56222481 -79.24780481 407.5503071 -80.74230957 411.54629517 C-81.06950485 412.42906631 -81.39670013 413.31183746 -81.73381042 414.22135925 C-82.80401774 417.10681363 -83.87855065 419.99063509 -84.95324707 422.87442017 C-85.70508618 424.89799301 -86.4566274 426.92167656 -87.20788574 428.94546509 C-88.37900046 432.10018637 -89.55035338 435.25481692 -90.72288513 438.40901184 C-93.52739398 445.95562717 -96.31313531 453.50898745 -99.08996582 461.06582642 C-100.23693954 464.18367629 -101.38411214 467.30145294 -102.53131104 470.41921997 C-103.26536308 472.41586414 -103.99849121 474.41284825 -104.73065186 476.41018677 C-105.75650641 479.20788625 -106.78612932 482.00417305 -107.81652832 484.80020142 C-108.11379318 485.61396744 -108.41105804 486.42773346 -108.71733093 487.26615906 C-109.56542923 489.56145013 -110.44201064 491.84361494 -111.32824707 494.12442017 C-111.63290894 494.94906265 -111.9375708 495.77370514 -112.25146484 496.62333679 C-114.656508 502.68667488 -114.656508 502.68667488 -117.78479004 504.72525024 C-118.70405273 504.94592163 -119.62331543 505.16659302 -120.57043457 505.39395142 C-121.62053711 505.66070679 -122.67063965 505.92746216 -123.75256348 506.20230103 C-125.46065186 506.5659375 -125.46065186 506.5659375 -127.20324707 506.93692017 C-128.39998047 507.2147937 -129.59671387 507.49266724 -130.82971191 507.77896118 C-155.74259917 513.32287843 -179.94349296 514.75551943 -205.32824707 514.12442017 C-201.03113342 501.56281084 -196.29621325 489.19887331 -191.41668701 476.85308838 C-189.18674657 471.21039503 -186.96698149 465.563698 -184.74621582 459.91738892 C-184.29145874 458.76179977 -183.83670166 457.60621063 -183.36816406 456.41560364 C-178.85491401 444.93876494 -174.40090936 433.4392962 -169.95324707 421.93692017 C-162.67424648 403.12019119 -155.31560185 384.33563984 -147.92605591 365.56207275 C-141.44799884 349.10182041 -135.01940851 332.6234308 -128.64074707 316.12442017 C-122.44332742 300.09482913 -116.17068828 284.09717551 -109.82824707 268.12442017 C-97.33578026 236.65580731 -85.16178097 205.06506883 -72.97668457 173.47647095 C-72.50859375 172.26299988 -72.04050293 171.04952881 -71.55822754 169.79928589 C-70.61413213 167.35168683 -69.67012155 164.90405506 -68.72619629 162.45639038 C-62.85356742 147.22942252 -56.95895938 132.0114794 -51.01574707 116.81192017 C-45.67641809 103.15555625 -40.36217392 89.4898237 -35.07824707 75.81192017 C-34.73554779 74.92510559 -34.39284851 74.03829102 -34.0397644 73.12460327 C-29.62425799 61.69609665 -25.22818858 50.26023976 -20.84387207 38.81973267 C-19.45893163 35.20865734 -18.07383576 31.59764166 -16.6887207 27.9866333 C-15.34483509 24.4802012 -14.0039787 20.97262046 -12.66320801 17.46499634 C-11.8433566 15.32667938 -11.02337629 13.18841184 -10.20324707 11.05020142 C-9.82492737 10.05767365 -9.44660767 9.06514587 -9.05682373 8.0425415 C-8.71069031 7.14183929 -8.36455688 6.24113708 -8.00793457 5.31314087 C-7.70613281 4.52430008 -7.40433105 3.73545929 -7.09338379 2.92271423 C-5.56301561 -0.67409658 -3.6675973 0.00729272 0 0 Z " fill="#FEFEFE" transform="translate(477.3282470703125,194.87557983398438)"/>
<path d="M0 0 C0.33 0.33 0.66 0.66 1 1 C-0.93704871 22.09525652 -16.23978606 34.42742703 -31.28735352 47.48803711 C-33.27904694 49.24634893 -35.15485816 51.08896024 -37 53 C-39.44380272 55.53108139 -41.98707707 57.86790057 -44.65234375 60.16015625 C-49.50282167 64.3749846 -54.03124203 68.88454407 -58.5625 73.4375 C-59.37396484 74.24509766 -60.18542969 75.05269531 -61.02148438 75.88476562 C-65.31323672 80.18344574 -69.44663791 84.55629283 -73.40698242 89.16186523 C-75.82211116 91.94860918 -78.35276306 94.62310387 -80.875 97.3125 C-86.17374466 103.01484872 -91.12898036 108.92714381 -96 115 C-96.9827665 116.19273342 -97.96724931 117.38405401 -98.953125 118.57421875 C-137.10662208 164.77480535 -175.51985427 221.58882059 -172 284 C-171.42055905 288.21121256 -170.43413771 292.00531683 -169 296 C-168.50693359 297.485 -168.50693359 297.485 -168.00390625 299 C-162.73550386 313.29213658 -152.81961265 322.42041586 -139.3034668 328.82080078 C-89.67364486 351.27842797 -23.8476159 329.97375715 24.390625 311.9296875 C58.77343203 298.89740662 91.88507287 282.85581068 124 265 C124.9374707 264.48034668 125.87494141 263.96069336 126.84082031 263.42529297 C167.65342288 240.75705477 206.20434718 214.71175939 243 186 C243.54398438 185.57686523 244.08796875 185.15373047 244.6484375 184.71777344 C262.67566511 170.6885197 280.31789662 156.24284145 297.07421875 140.70703125 C299.00358452 138.92191712 300.94352404 137.14815441 302.89453125 135.38671875 C303.90971504 134.46709526 304.92401531 133.54649566 305.9375 132.625 C306.45062744 132.15868164 306.96375488 131.69236328 307.49243164 131.21191406 C311.22842899 127.76397902 314.80702669 124.17847327 318.3515625 120.53515625 C319.30209816 119.5635742 320.25270076 118.59205765 321.20336914 117.62060547 C323.09743261 115.68393937 324.97327539 113.73153455 326.84155273 111.77001953 C327.70981689 110.88040527 328.57808105 109.99079102 329.47265625 109.07421875 C330.24875244 108.26557373 331.02484863 107.45692871 331.82446289 106.6237793 C334 105 334 105 336.08032227 105.13647461 C339.13182336 106.50912619 342.00028093 108.17214093 344.875 109.875 C349.18607614 112.4060189 353.4995643 114.81171475 358 117 C356.53719693 120.30623348 354.69091617 122.65593898 352.25 125.3125 C351.43402344 126.20066406 350.61804688 127.08882812 349.77734375 128.00390625 C349.10421143 128.72924561 349.10421143 128.72924561 348.41748047 129.46923828 C346.95922787 131.04403053 345.51260434 132.6289802 344.06640625 134.21484375 C336.77452908 142.16319186 329.24148659 149.86423117 321.625 157.5 C320.23438354 158.89750488 320.23438354 158.89750488 318.81567383 160.32324219 C313.70318617 165.42423285 308.48403346 170.30343359 303 175 C301.39231627 176.45445517 299.78760285 177.91220895 298.1875 179.375 C293.86739209 183.27363397 289.41928619 186.97503858 284.89453125 190.6328125 C282.38667365 192.68377296 279.91938564 194.77396803 277.46337891 196.88647461 C270.66099671 202.72590045 263.61559555 208.19178085 256.46875 213.6015625 C252.65117162 216.49331091 248.8747089 219.43436395 245.10620117 222.38964844 C238.05037255 227.92015636 230.92977063 233.30438736 223.59375 238.45703125 C221.00619575 240.2759551 218.45042533 242.13260601 215.90625 244.01171875 C190.97251427 262.37981371 164.05499328 277.79270837 137.20898438 293.15820312 C134.1697473 294.90257352 131.13886096 296.6606411 128.109375 298.421875 C115.36438497 305.78722384 102.36014337 312.33632695 89.02734375 318.56787109 C86.15714232 319.92566154 83.31046757 321.32200917 80.46875 322.73828125 C56.56920424 334.58853511 31.47180483 344.11656944 6 352 C4.88189941 352.35433105 4.88189941 352.35433105 3.74121094 352.71582031 C-26.48660132 362.20804825 -58.54445867 366.22702412 -90.125 366.3125 C-91.26693817 366.31814972 -91.26693817 366.31814972 -92.4319458 366.32391357 C-106.62457775 366.3596536 -121.43264631 365.9268015 -135.125 361.875 C-136.22146851 361.55958252 -136.22146851 361.55958252 -137.34008789 361.23779297 C-161.69124895 353.81093816 -182.06586905 338.16971083 -194.17578125 315.71875 C-197.22990247 309.72791273 -199.213436 303.47358212 -201 297 C-201.24621094 296.12472656 -201.49242187 295.24945312 -201.74609375 294.34765625 C-211.51087493 251.71933567 -188.29935203 202.89993562 -166.56591797 167.64086914 C-154.3624989 148.23390537 -140.73973168 129.55575615 -126 112 C-125.12885921 110.95316415 -124.25776762 109.90628734 -123.38671875 108.859375 C-117.61806804 101.95632926 -111.6621663 95.26675604 -105.53588867 88.67944336 C-104.41372465 87.45239419 -103.30650407 86.21163148 -102.20825195 84.96313477 C-95.60004991 77.47955039 -88.58413633 70.43202958 -81.51586914 63.38549805 C-79.43454811 61.30955574 -77.35865187 59.22829578 -75.28320312 57.14648438 C-73.93782062 55.80176248 -72.59212806 54.45735071 -71.24609375 53.11328125 C-70.63753036 52.50269363 -70.02896698 51.89210602 -69.40196228 51.26301575 C-65.0957064 46.97972813 -60.60588703 42.95760586 -56 39 C-54.89408395 38.03827453 -53.78853632 37.076125 -52.68359375 36.11328125 C-41.24665327 26.22022307 -29.55714147 16.75471125 -17.3125 7.875 C-16.16249512 7.03980835 -16.16249512 7.03980835 -14.98925781 6.18774414 C-14.26706055 5.66946045 -13.54486328 5.15117676 -12.80078125 4.6171875 C-12.16309814 4.15940918 -11.52541504 3.70163086 -10.8684082 3.22998047 C-7.12468197 0.76547077 -4.54768501 -0.36873122 0 0 Z " fill="#FCFDFD" transform="translate(372,398)"/>
<path d="M0 0 C1.65682635 2.48523952 2.5780833 4.28812126 3.56542969 7.03613281 C3.86103287 7.85264313 4.15663605 8.66915344 4.4611969 9.51040649 C4.77822067 10.3990036 5.09524445 11.28760071 5.421875 12.203125 C5.75787216 13.13482513 6.09386932 14.06652527 6.44004822 15.02645874 C7.54722459 18.09959905 8.64861598 21.17477951 9.75 24.25 C10.52674677 26.40946939 11.30385047 28.56881043 12.08129883 30.72802734 C14.03539817 36.15821477 15.98485459 41.59005418 17.93243408 47.02258301 C19.44165626 51.23176925 20.95327095 55.44009498 22.46484375 59.6484375 C24.09282367 64.1818425 25.72011725 68.7154918 27.34570312 73.24975586 C32.55752513 87.78467307 37.79620293 102.30988684 43.03643417 116.83457947 C44.22210303 120.12111408 45.40755467 123.40772703 46.59301758 126.69433594 C52.10459454 141.97472468 52.10459454 141.97472468 57.61816406 157.25439453 C59.65907572 162.90928152 61.69870181 168.56463069 63.73742676 174.2203064 C64.47840977 176.27518453 65.21984219 178.32990068 65.96179199 180.38442993 C66.48295593 181.82766129 66.48295593 181.82766129 67.01464844 183.30004883 C67.31401306 184.12861893 67.61337769 184.95718903 67.92181396 185.81086731 C72.37031608 198.18038029 76.68047978 210.58137937 81 223 C27.21 223 -26.58 223 -82 223 C-80.09835731 216.66119103 -78.17183822 210.50627177 -75.83984375 204.33984375 C-75.38719398 203.13004852 -75.38719398 203.13004852 -74.92539978 201.89581299 C-74.27345357 200.15402544 -73.62011778 198.41275749 -72.96551514 196.67196655 C-71.16901979 191.89338279 -69.38391382 187.11054305 -67.59765625 182.328125 C-67.22274048 181.32504807 -66.84782471 180.32197113 -66.46154785 179.28849792 C-62.22259667 167.93745482 -58.04712021 156.56323924 -53.875 145.1875 C-53.10949203 143.10130528 -52.34394847 141.01512362 -51.57836914 138.92895508 C-50.451047 135.85684018 -49.32379629 132.78469918 -48.19676208 129.71247864 C-32.31053465 86.40787318 -16.22122589 43.18019806 0 0 Z " fill="#00214D" transform="translate(512,291)"/>
<path d="M0 0 C2.34678786 2.88896468 3.79456776 5.59698524 5.12207031 9.06762695 C5.51445389 10.08410812 5.90683746 11.10058929 6.31111145 12.14787292 C6.93828316 13.80137505 6.93828316 13.80137505 7.578125 15.48828125 C8.24318306 17.218825 8.24318306 17.218825 8.92167664 18.98432922 C10.12140031 22.10951664 11.31551656 25.2367367 12.50718307 28.36499786 C13.75216638 31.62906949 15.00443285 34.89034375 16.25610352 38.15185547 C18.25576825 43.36471785 20.25172152 48.57898428 22.24462891 53.79443359 C24.57568344 59.89338448 26.91484866 65.98915037 29.26171875 72.08203125 C29.57661255 72.89956879 29.89150635 73.71710632 30.21594238 74.55941772 C30.82619764 76.14362931 31.43648718 77.72782769 32.04681396 79.31201172 C33.52924794 83.16168745 35.00871651 87.01250206 36.48828125 90.86328125 C39.24118367 98.02741334 41.99719695 105.19034423 44.75430298 112.3528595 C47.25132093 118.84022717 49.74562289 125.32863568 52.23861694 131.81755066 C54.11610799 136.70347868 55.99747192 141.58789661 57.88128662 146.47138977 C59.11054891 149.65993926 60.33706856 152.84953883 61.56292725 156.03939819 C62.14186168 157.54410653 62.72196391 159.04836613 63.30328369 160.55215454 C64.09978367 162.61303367 64.89218511 164.67544268 65.68359375 166.73828125 C66.35733032 168.48685425 66.35733032 168.48685425 67.04467773 170.27075195 C68 173 68 173 68 175 C39.62 175 11.24 175 -18 175 C-24.43338547 158.03925649 -30.85862546 141.08411753 -37.125 124.0625 C-38.20347956 121.13627398 -39.28228252 118.21016736 -40.36116028 115.28408813 C-41.1018663 113.27517359 -41.84241615 111.26620145 -42.58280945 109.25717163 C-45.33375749 101.79594648 -48.10027645 94.34058462 -50.87109375 86.88671875 C-52.05256035 83.70451083 -53.2337172 80.52218815 -54.41473389 77.33981323 C-55.17749554 75.28644102 -55.94136401 73.23347961 -56.70635986 71.18093872 C-57.76679463 68.33524191 -58.82328189 65.48810906 -59.87890625 62.640625 C-60.19677597 61.79082565 -60.51464569 60.94102631 -60.84214783 60.06547546 C-63 54.2277496 -63 54.2277496 -63 52 C-61.33862305 50.53881836 -61.33862305 50.53881836 -59.01171875 48.83984375 C-58.16552979 48.21561523 -57.31934082 47.59138672 -56.44750977 46.94824219 C-55.53670654 46.28469727 -54.62590332 45.62115234 -53.6875 44.9375 C-51.83467524 43.56811249 -49.98310197 42.19702997 -48.1328125 40.82421875 C-47.23981445 40.16212402 -46.34681641 39.5000293 -45.42675781 38.81787109 C-40.81950315 35.36660166 -36.39781802 31.71401095 -32 28 C-30.95865013 27.1324321 -29.91696506 26.26526644 -28.875 25.3984375 C-22.82092032 20.34095109 -16.91293941 15.15734922 -11.12426758 9.7980957 C-7.4916168 6.43557613 -3.78818493 3.18551915 0 0 Z " fill="#FDFEFE" transform="translate(698,575)"/>
<path d="M0 0 C0.69996094 0.59296875 1.39992188 1.1859375 2.12109375 1.796875 C15.70936612 14.19319365 22.39035253 34.14308395 23.21875 52.08203125 C24.34651124 90.48974892 7.40336685 129.13627362 -11 162 C-13.50502448 159.50390609 -15.99965476 157.00035508 -18.46484375 154.46484375 C-22.72737874 150.10803469 -26.70867622 146.06339798 -32 143 C-30.67853491 138.51568404 -28.82357902 134.53026761 -26.72485352 130.37817383 C-13.61314762 104.24676528 -1.88477863 71.47590018 -9.96875 41.984375 C-14.57540224 28.6530026 -22.01001856 18.30027272 -34.57421875 11.53125 C-38.43003963 9.8077816 -42.27527733 8.41644016 -46.3125 7.1875 C-46.95058594 6.99244873 -47.58867188 6.79739746 -48.24609375 6.59643555 C-61.06605138 3.03481252 -74.28817549 2.59072404 -87.5 2.625 C-88.29825195 2.62554382 -89.09650391 2.62608765 -89.91894531 2.62664795 C-128.94789108 2.74750155 -170.71671561 9.9004223 -206.12109375 26.75 C-209 28 -209 28 -212 28 C-212.72697561 26.25766175 -213.43098244 24.50572655 -214.125 22.75 C-214.51945313 21.77546875 -214.91390625 20.8009375 -215.3203125 19.796875 C-216 17 -216 17 -215.37890625 14.84375 C-194.33264249 -13.29742987 -138.0516142 -18.34674349 -106 -23 C-70.18780946 -27.92083195 -28.14714575 -24.62287876 0 0 Z " fill="#FCFDFD" transform="translate(818,256)"/>
<path d="M0 0 C10.82784978 8.07611051 17.13060509 18.16442657 21 31 C21.19207031 31.63421875 21.38414062 32.2684375 21.58203125 32.921875 C24.08761735 45.37955541 21.29089522 59.07265262 14.8125 69.875 C6.52580746 81.65818729 -3.92359758 89.32640229 -18 93 C-34.27775126 94.70715704 -47.95446568 92.38165613 -61 82 C-61.67546875 81.47277344 -62.3509375 80.94554687 -63.046875 80.40234375 C-73.2205985 71.43132788 -78.27807722 57.68117569 -79.171875 44.45703125 C-79.60152215 30.60091071 -74.7000763 18.11941226 -65.75 7.5625 C-48.33454123 -10.35306485 -21.15946501 -13.5420576 0 0 Z " fill="#FDFEFE" transform="translate(780,411)"/>
<path d="M0 0 C0.99 0.33 1.98 0.66 3 1 C1.58632741 5.34671293 0.02739359 9.6135639 -1.625 13.875 C-2.07101562 15.02742188 -2.51703125 16.17984375 -2.9765625 17.3671875 C-3.31429687 18.23601562 -3.65203125 19.10484375 -4 20 C-4.97812873 16.94371936 -5.00835683 15.14722553 -4.00390625 12.109375 C-3.77509766 11.40039062 -3.54628906 10.69140625 -3.31054688 9.9609375 C-3.06369141 9.23132813 -2.81683594 8.50171875 -2.5625 7.75 C-2.19801758 6.63238281 -2.19801758 6.63238281 -1.82617188 5.4921875 C-1.22667019 3.65841765 -0.61455513 1.82877996 0 0 Z " fill="#0E2049" transform="translate(835,349)"/>
<path d="M0 0 C2.18975773 3.28463659 2.99806563 6.20696275 4 10 C1.69 11.32 -0.62 12.64 -3 14 C-2.67 13.13375 -2.34 12.2675 -2 11.375 C-1.00923106 8.03115484 -0.92145948 5.45578295 -1 2 C-0.67 1.34 -0.34 0.68 0 0 Z " fill="#00234F" transform="translate(512,291)"/>
<path d="M0 0 C2.18975773 3.28463659 2.99806563 6.20696275 4 10 C3.34 10 2.68 10 2 10 C-1.07692308 4.58461538 -1.07692308 4.58461538 -0.6875 1.625 C-0.460625 1.08875 -0.23375 0.5525 0 0 Z " fill="#19284D" transform="translate(512,291)"/>
<path d="M0 0 C-1.39332574 3.36720387 -2.9789286 4.9859524 -6 7 C-6.66 6.67 -7.32 6.34 -8 6 C-7.0479279 4.99403703 -6.08812654 3.99538437 -5.125 3 C-4.59132813 2.443125 -4.05765625 1.88625 -3.5078125 1.3125 C-2 0 -2 0 0 0 Z " fill="#07153E" transform="translate(658,527)"/>
</svg>
